<svg width="800" height="380" xmlns="http://www.w3.org/2000/svg"><rect width="100%" height="100%" fill="#f9fafb"/><text x="400" y="35" text-anchor="middle" font-size="16" fill="#1f2937" font-weight="bold">Docker化</text><circle cx="60" cy="60" r="20" fill="#3b82f6"/><text x="60" y="65" text-anchor="middle" font-size="14" fill="white">1</text><rect x="100" y="40" width="600" height="40" rx="8" fill="#ffffff" stroke="#e5e7eb"/><text x="120" y="65" font-size="12" fill="#1f2937">分析依赖</text><line x1="60" y1="80" x2="60" y2="110" stroke="#3b82f6" stroke-width="2"/><circle cx="60" cy="130" r="20" fill="#3b82f6"/><text x="60" y="135" text-anchor="middle" font-size="14" fill="white">2</text><rect x="100" y="110" width="600" height="40" rx="8" fill="#ffffff" stroke="#e5e7eb"/><text x="120" y="135" font-size="12" fill="#1f2937">编写Dockerfile</text><line x1="60" y1="150" x2="60" y2="180" stroke="#3b82f6" stroke-width="2"/><circle cx="60" cy="200" r="20" fill="#3b82f6"/><text x="60" y="205" text-anchor="middle" font-size="14" fill="white">3</text><rect x="100" y="180" width="600" height="40" rx="8" fill="#ffffff" stroke="#e5e7eb"/><text x="120" y="205" font-size="12" fill="#1f2937">构建镜像</text><line x1="60" y1="220" x2="60" y2="250" stroke="#3b82f6" stroke-width="2"/><circle cx="60" cy="270" r="20" fill="#3b82f6"/><text x="60" y="275" text-anchor="middle" font-size="14" fill="white">4</text><rect x="100" y="250" width="600" height="40" rx="8" fill="#ffffff" stroke="#e5e7eb"/><text x="120" y="275" font-size="12" fill="#1f2937">部署监控</text></svg>