<?xml version="1.0" encoding="UTF-8"?>
<svg width="800" height="480" viewBox="0 0 800 480" xmlns="http://www.w3.org/2000/svg">
  <defs>
    <marker id="arrowhead" markerWidth="10" markerHeight="7" refX="9" refY="3.5" orient="auto">
      <polygon points="0 0, 10 3.5, 0 7" fill="#6b7280"/>
    </marker>
  </defs>
  <rect width="100%" height="100%" fill="#f3f4f6"/>
  <text x="400" y="30" text-anchor="middle" font-size="18" font-weight="bold" fill="#1f2937" font-family="system-ui">AI辅助博客写作流程</text>
  
            <rect x="200" y="70" width="400" height="50" rx="8" fill="#ffffff" stroke="#3b82f6" stroke-width="2"/>
            <text x="400" y="102" text-anchor="middle" font-size="14" fill="#1f2937" font-family="system-ui">确定主题和关键词</text>
            <circle cx="180" cy="95" r="15" fill="#3b82f6"/>
            <text x="180" y="100" text-anchor="middle" font-size="12" fill="white" font-family="system-ui" font-weight="bold">1</text>
            
            <rect x="200" y="150" width="400" height="50" rx="8" fill="#ffffff" stroke="#3b82f6" stroke-width="2"/>
            <text x="400" y="182" text-anchor="middle" font-size="14" fill="#1f2937" font-family="system-ui">AI生成大纲结构</text>
            <circle cx="180" cy="175" r="15" fill="#3b82f6"/>
            <text x="180" y="180" text-anchor="middle" font-size="12" fill="white" font-family="system-ui" font-weight="bold">2</text>
            
            <rect x="200" y="230" width="400" height="50" rx="8" fill="#ffffff" stroke="#3b82f6" stroke-width="2"/>
            <text x="400" y="262" text-anchor="middle" font-size="14" fill="#1f2937" font-family="system-ui">分章节生成内容</text>
            <circle cx="180" cy="255" r="15" fill="#3b82f6"/>
            <text x="180" y="260" text-anchor="middle" font-size="12" fill="white" font-family="system-ui" font-weight="bold">3</text>
            
            <rect x="200" y="310" width="400" height="50" rx="8" fill="#ffffff" stroke="#3b82f6" stroke-width="2"/>
            <text x="400" y="342" text-anchor="middle" font-size="14" fill="#1f2937" font-family="system-ui">人工润色调整</text>
            <circle cx="180" cy="335" r="15" fill="#3b82f6"/>
            <text x="180" y="340" text-anchor="middle" font-size="12" fill="white" font-family="system-ui" font-weight="bold">4</text>
            
            <rect x="200" y="390" width="400" height="50" rx="8" fill="#ffffff" stroke="#3b82f6" stroke-width="2"/>
            <text x="400" y="422" text-anchor="middle" font-size="14" fill="#1f2937" font-family="system-ui">发布和推广</text>
            <circle cx="180" cy="415" r="15" fill="#3b82f6"/>
            <text x="180" y="420" text-anchor="middle" font-size="12" fill="white" font-family="system-ui" font-weight="bold">5</text>
            
  <path d="M400 120 L400 150" stroke="#6b7280" stroke-width="2" marker-end="url(#arrowhead)"/><path d="M400 200 L400 230" stroke="#6b7280" stroke-width="2" marker-end="url(#arrowhead)"/><path d="M400 280 L400 310" stroke="#6b7280" stroke-width="2" marker-end="url(#arrowhead)"/><path d="M400 360 L400 390" stroke="#6b7280" stroke-width="2" marker-end="url(#arrowhead)"/>
</svg>